<svg width="48" height="48" viewBox="0 0 48 48" fill="none" xmlns="http://www.w3.org/2000/svg">
<rect width="48" height="48" rx="24" fill="#2E2A27"/>
<g clip-path="url(#clip0_10_340)">
<path fill-rule="evenodd" clip-rule="evenodd" d="M35.52 24.2728C35.52 23.4218 35.4436 22.6037 35.3018 21.8182H24V26.46H30.4582C30.18 27.96 29.3345 29.2309 28.0636 30.0818V33.0928H31.9418C34.2109 31.0037 35.52 27.9273 35.52 24.2728Z" fill="white"/>
<path fill-rule="evenodd" clip-rule="evenodd" d="M24 36C27.24 36 29.9564 34.9255 31.9418 33.0927L28.0636 30.0818C26.9891 30.8018 25.6145 31.2273 24 31.2273C20.8745 31.2273 18.2291 29.1164 17.2855 26.28H13.2764V29.3891C15.2509 33.3109 19.3091 36 24 36Z" fill="white"/>
<path fill-rule="evenodd" clip-rule="evenodd" d="M17.2855 26.28C17.0455 25.56 16.9091 24.7909 16.9091 24C16.9091 23.2091 17.0455 22.44 17.2855 21.72V18.6109H13.2764C12.4636 20.2309 12 22.0637 12 24C12 25.9364 12.4636 27.7691 13.2764 29.3891L17.2855 26.28Z" fill="white"/>
<path fill-rule="evenodd" clip-rule="evenodd" d="M24 16.7727C25.7618 16.7727 27.3436 17.3782 28.5873 18.5673L32.0291 15.1255C29.9509 13.1891 27.2345 12 24 12C19.3091 12 15.2509 14.6891 13.2764 18.6109L17.2855 21.72C18.2291 18.8836 20.8745 16.7727 24 16.7727Z" fill="white"/>
</g>
<defs>
<clipPath id="clip0_10_340">
<rect width="24" height="24" fill="white" transform="translate(12 12)"/>
</clipPath>
</defs>
</svg>
