<svg width="48" height="48" viewBox="0 0 48 48" fill="none" xmlns="http://www.w3.org/2000/svg">
<rect width="48" height="48" rx="24" fill="#2E2A27"/>
<path d="M34.8 24.1807C34.8 22.7953 33.7371 21.6709 32.4274 21.6709C31.7821 21.6709 31.2127 21.9319 30.7951 22.3736C29.1817 21.1488 26.942 20.3457 24.4745 20.2453L25.5564 14.8842L29.0678 15.6673C29.1058 16.611 29.846 17.374 30.7571 17.374C31.6872 17.374 32.4464 16.5709 32.4464 15.587C32.4464 14.6031 31.6872 13.8 30.7571 13.8C30.0928 13.8 29.5234 14.2016 29.2576 14.8039L25.3286 13.9205C25.2148 13.9004 25.1009 13.9205 25.006 13.9807C24.9111 14.0409 24.8541 14.1413 24.8162 14.2618L23.6204 20.2453C21.096 20.3256 18.8373 21.1086 17.2049 22.3736C16.7873 21.952 16.1989 21.6709 15.5726 21.6709C14.2629 21.6709 13.2 22.7953 13.2 24.1807C13.2 25.2047 13.7694 26.0681 14.6046 26.4697C14.5666 26.7106 14.5476 26.9716 14.5476 27.2327C14.5476 31.0878 18.7803 34.2 24.019 34.2C29.2576 34.2 33.4903 31.0878 33.4903 27.2327C33.4903 26.9716 33.4714 26.7307 33.4334 26.4898C34.2116 26.0882 34.8 25.2047 34.8 24.1807ZM18.5715 25.9677C18.5715 24.9838 19.3308 24.1807 20.2608 24.1807C21.1909 24.1807 21.9501 24.9838 21.9501 25.9677C21.9501 26.9516 21.1909 27.7547 20.2608 27.7547C19.3308 27.7547 18.5715 26.9516 18.5715 25.9677ZM28.0049 30.6862C26.8471 31.911 24.6453 31.9913 24 31.9913C23.3547 31.9913 21.1339 31.8909 19.9951 30.6862C19.8243 30.5055 19.8243 30.2043 19.9951 30.0236C20.1659 29.8429 20.4506 29.8429 20.6214 30.0236C21.3427 30.7866 22.8991 31.0677 24.019 31.0677C25.1388 31.0677 26.6763 30.7866 27.4165 30.0236C27.5873 29.8429 27.8721 29.8429 28.0429 30.0236C28.1757 30.2244 28.1757 30.5055 28.0049 30.6862ZM27.7012 27.7547C26.7712 27.7547 26.012 26.9516 26.012 25.9677C26.012 24.9838 26.7712 24.1807 27.7012 24.1807C28.6313 24.1807 29.3905 24.9838 29.3905 25.9677C29.3905 26.9516 28.6313 27.7547 27.7012 27.7547Z" fill="white"/>
</svg>
